<mxfile host="app.diagrams.net" agent="Mozilla/5.0 (Windows NT 10.0; Win64; x64) AppleWebKit/537.36 (KHTML, like Gecko) Chrome/136.0.0.0 YaBrowser/25.6.0.0 Safari/537.36" version="27.2.0">
  <diagram id="C5RBs43oDa-KdzZeNtuy" name="Page-1">
    <mxGraphModel dx="2018" dy="1112" grid="1" gridSize="10" guides="1" tooltips="1" connect="1" arrows="1" fold="1" page="1" pageScale="1" pageWidth="1169" pageHeight="827" math="0" shadow="0">
      <root>
        <mxCell id="WIyWlLk6GJQsqaUBKTNV-0" />
        <mxCell id="WIyWlLk6GJQsqaUBKTNV-1" parent="WIyWlLk6GJQsqaUBKTNV-0" />
        <mxCell id="Ysa2_xZ3Z4_A4Y0gmVtY-5" value="" style="edgeStyle=orthogonalEdgeStyle;rounded=0;orthogonalLoop=1;jettySize=auto;html=1;" edge="1" parent="WIyWlLk6GJQsqaUBKTNV-1" source="Ag6YE-x-BtzYVNvtRxZw-0" target="Ag6YE-x-BtzYVNvtRxZw-1">
          <mxGeometry relative="1" as="geometry" />
        </mxCell>
        <mxCell id="Ag6YE-x-BtzYVNvtRxZw-0" value="Модуль сбора данных" style="rounded=1;whiteSpace=wrap;html=1;" parent="WIyWlLk6GJQsqaUBKTNV-1" vertex="1">
          <mxGeometry x="280" y="190" width="120" height="60" as="geometry" />
        </mxCell>
        <mxCell id="Ysa2_xZ3Z4_A4Y0gmVtY-6" value="" style="edgeStyle=orthogonalEdgeStyle;rounded=0;orthogonalLoop=1;jettySize=auto;html=1;" edge="1" parent="WIyWlLk6GJQsqaUBKTNV-1" source="Ag6YE-x-BtzYVNvtRxZw-1" target="Ag6YE-x-BtzYVNvtRxZw-2">
          <mxGeometry relative="1" as="geometry" />
        </mxCell>
        <mxCell id="Ag6YE-x-BtzYVNvtRxZw-1" value="Модуль предобработки изображений" style="rounded=1;whiteSpace=wrap;html=1;" parent="WIyWlLk6GJQsqaUBKTNV-1" vertex="1">
          <mxGeometry x="280" y="290" width="120" height="60" as="geometry" />
        </mxCell>
        <mxCell id="Ysa2_xZ3Z4_A4Y0gmVtY-14" value="" style="edgeStyle=orthogonalEdgeStyle;rounded=0;orthogonalLoop=1;jettySize=auto;html=1;" edge="1" parent="WIyWlLk6GJQsqaUBKTNV-1" source="Ag6YE-x-BtzYVNvtRxZw-2" target="Ysa2_xZ3Z4_A4Y0gmVtY-10">
          <mxGeometry relative="1" as="geometry" />
        </mxCell>
        <mxCell id="Ag6YE-x-BtzYVNvtRxZw-2" value="Модуль нейронной сети" style="rounded=1;whiteSpace=wrap;html=1;" parent="WIyWlLk6GJQsqaUBKTNV-1" vertex="1">
          <mxGeometry x="280" y="390" width="120" height="60" as="geometry" />
        </mxCell>
        <mxCell id="Ysa2_xZ3Z4_A4Y0gmVtY-3" style="edgeStyle=orthogonalEdgeStyle;rounded=0;orthogonalLoop=1;jettySize=auto;html=1;entryX=0.5;entryY=0;entryDx=0;entryDy=0;" edge="1" parent="WIyWlLk6GJQsqaUBKTNV-1" source="Ysa2_xZ3Z4_A4Y0gmVtY-0" target="Ysa2_xZ3Z4_A4Y0gmVtY-2">
          <mxGeometry relative="1" as="geometry" />
        </mxCell>
        <mxCell id="Ysa2_xZ3Z4_A4Y0gmVtY-8" style="edgeStyle=orthogonalEdgeStyle;rounded=0;orthogonalLoop=1;jettySize=auto;html=1;entryX=0.5;entryY=0;entryDx=0;entryDy=0;" edge="1" parent="WIyWlLk6GJQsqaUBKTNV-1" source="Ysa2_xZ3Z4_A4Y0gmVtY-0" target="Ysa2_xZ3Z4_A4Y0gmVtY-7">
          <mxGeometry relative="1" as="geometry" />
        </mxCell>
        <mxCell id="Ysa2_xZ3Z4_A4Y0gmVtY-0" value="База данных приложения" style="rounded=1;whiteSpace=wrap;html=1;" vertex="1" parent="WIyWlLk6GJQsqaUBKTNV-1">
          <mxGeometry x="520" y="40" width="120" height="60" as="geometry" />
        </mxCell>
        <mxCell id="Ysa2_xZ3Z4_A4Y0gmVtY-1" value="Интерфейс приложения" style="rounded=1;whiteSpace=wrap;html=1;" vertex="1" parent="WIyWlLk6GJQsqaUBKTNV-1">
          <mxGeometry x="670" y="480" width="120" height="60" as="geometry" />
        </mxCell>
        <mxCell id="Ysa2_xZ3Z4_A4Y0gmVtY-4" value="" style="edgeStyle=orthogonalEdgeStyle;rounded=0;orthogonalLoop=1;jettySize=auto;html=1;" edge="1" parent="WIyWlLk6GJQsqaUBKTNV-1" source="Ysa2_xZ3Z4_A4Y0gmVtY-2" target="Ag6YE-x-BtzYVNvtRxZw-0">
          <mxGeometry relative="1" as="geometry" />
        </mxCell>
        <mxCell id="Ysa2_xZ3Z4_A4Y0gmVtY-2" value="&amp;nbsp;Получение изображения из базы" style="shape=parallelogram;perimeter=parallelogramPerimeter;whiteSpace=wrap;html=1;fixedSize=1;" vertex="1" parent="WIyWlLk6GJQsqaUBKTNV-1">
          <mxGeometry x="280" y="90" width="120" height="60" as="geometry" />
        </mxCell>
        <mxCell id="Ysa2_xZ3Z4_A4Y0gmVtY-9" style="edgeStyle=orthogonalEdgeStyle;rounded=0;orthogonalLoop=1;jettySize=auto;html=1;" edge="1" parent="WIyWlLk6GJQsqaUBKTNV-1" source="Ysa2_xZ3Z4_A4Y0gmVtY-7" target="Ysa2_xZ3Z4_A4Y0gmVtY-1">
          <mxGeometry relative="1" as="geometry" />
        </mxCell>
        <mxCell id="Ysa2_xZ3Z4_A4Y0gmVtY-7" value="&lt;div&gt;Получение&amp;nbsp;&lt;/div&gt;&lt;div&gt;данных&lt;/div&gt;&lt;div&gt;&amp;nbsp;о снимках&lt;/div&gt;" style="shape=parallelogram;perimeter=parallelogramPerimeter;whiteSpace=wrap;html=1;fixedSize=1;" vertex="1" parent="WIyWlLk6GJQsqaUBKTNV-1">
          <mxGeometry x="670" y="230" width="120" height="60" as="geometry" />
        </mxCell>
        <mxCell id="Ysa2_xZ3Z4_A4Y0gmVtY-12" value="" style="edgeStyle=orthogonalEdgeStyle;rounded=0;orthogonalLoop=1;jettySize=auto;html=1;" edge="1" parent="WIyWlLk6GJQsqaUBKTNV-1" source="Ysa2_xZ3Z4_A4Y0gmVtY-10" target="Ysa2_xZ3Z4_A4Y0gmVtY-11">
          <mxGeometry relative="1" as="geometry" />
        </mxCell>
        <mxCell id="Ysa2_xZ3Z4_A4Y0gmVtY-10" value="Проведение независимого анализа" style="shape=parallelogram;perimeter=parallelogramPerimeter;whiteSpace=wrap;html=1;fixedSize=1;" vertex="1" parent="WIyWlLk6GJQsqaUBKTNV-1">
          <mxGeometry x="280" y="480" width="120" height="60" as="geometry" />
        </mxCell>
        <mxCell id="Ysa2_xZ3Z4_A4Y0gmVtY-15" style="edgeStyle=orthogonalEdgeStyle;rounded=0;orthogonalLoop=1;jettySize=auto;html=1;entryX=0.5;entryY=1;entryDx=0;entryDy=0;" edge="1" parent="WIyWlLk6GJQsqaUBKTNV-1" source="Ysa2_xZ3Z4_A4Y0gmVtY-11" target="Ysa2_xZ3Z4_A4Y0gmVtY-0">
          <mxGeometry relative="1" as="geometry" />
        </mxCell>
        <mxCell id="Ysa2_xZ3Z4_A4Y0gmVtY-11" value="Привязка изображения&lt;div&gt;&amp;nbsp;к карточке пациента&lt;/div&gt;" style="shape=parallelogram;perimeter=parallelogramPerimeter;whiteSpace=wrap;html=1;fixedSize=1;" vertex="1" parent="WIyWlLk6GJQsqaUBKTNV-1">
          <mxGeometry x="460" y="480" width="160" height="60" as="geometry" />
        </mxCell>
      </root>
    </mxGraphModel>
  </diagram>
</mxfile>
